<svg version="1.2" xmlns="http://www.w3.org/2000/svg" viewBox="0 0 432 432" width="432" height="432"><style>.a{fill:#fff}</style><path class="a" d="m218.4 279.8c0 9.9-8.1 17.9-18 17.9-9.6 0-17.5-7.6-17.8-17.1-0.1-1.8-0.4-2-1.7-0.8-2.9 2.7-7.4 5.8-14.9 2.7-9.9-4-10.5-11-10-14.3 0.2-1.1 0-1.4-1.2-0.6-3.7 2.7-8.3 4.2-13.7 2.1-13.4-5.2-12.3-18-11.7-21.5 0.1-0.3 0-0.4-0.1-0.5-2.5 2.5-6 4-9.8 4-7.9 0-14.2-6.4-14.2-14.3 0-7.8 6.3-14.2 14.2-14.2 7.2 0 13.2 5.5 14.1 12.4 2-3 9.8-11.6 22.1-7.9 8.6 2.7 9.9 10.5 10.1 13.4 0.1 0.7 0.3 0.7 0.8 0.2 2.1-2.2 8.2-7 18.2-2.7 13 5.5 7.6 21.6 7.2 22.5-0.3 1-0.9 2.6-0.6 2.8 0.6 0.3 5-2.1 9.1-2 9.9 0.1 17.9 8 17.9 17.9z"/><path class="a" d="m331.5 239.2c-0.2 3.9-2.4 7.2-5.8 9.4-9.6 6.1-17.4 0.6-17.7 0.4 0 0-22.6-20.7-30.9-27.6-1.1-1-2.9-2.5-3.7-1.5-1 1.2 1.7 3.6 1.7 3.6l26.2 26.2c0 0 3.6 3.4 4 8 0.2 3.5-1 8.2-6.8 12-9.5 6.2-16.7 1.8-18.3 0.6-8.2-8-16.8-16.6-22.8-21.6-1.2-1-3-2.4-3.8-1.5-0.9 1 1.8 3.6 1.8 3.6l19.1 21.4c0 0 4.6 5.4 0.5 10.8 0 0 0.1-0.1 0.1-0.2-0.8 1.1-1.8 2.1-2.8 3-4 3.2-9.7 3.6-12.9 3-3.8-0.7-4.5-2-4.6-2.1 0 0-10.2-10.5-18.6-17.5-1.1-1-2.8-2.4-3.7-1.4-0.9 1 1.8 3.5 1.8 3.5l16.4 18.2c0.5 0.7-0.1 1.6-0.7 2.4-0.8 1.2-3.1 3.3-9.3 4.1-7.7 1-16.5-3.4-20-5.3 1.8-3.3 2.8-7 2.8-10.9 0-12.7-10.3-23-23-23q-1.2 0-2.3 0.1c0.9-7.9-0.7-18.4-11.4-23-3.3-1.4-6.6-2.1-9.7-2.1-3.2 0-5.9 0.7-8.1 1.7-1.7-4-5.1-8.3-11.6-10.6-2.8-0.9-5.6-1.4-8.3-1.4-6 0-10.5 2.2-13.9 4.8-3.5-4.9-9.3-8.2-15.7-8.2-5.7 0-10.8 2.5-14.4 6.5-3.2-2.8-21.3-16.1-79.3-29-2.5-0.5-8.5-2.3-12.2-3.3 5-26.3 22.1-50.1 47.8-69.2 21.4 10 35.7 14.3 52 18.8 2.7 0.7 16.9 3 19.6 3 6.4 0 12.7-1.7 19.2-3.5 5.2-1.5 10.6-3 16.4-3.7q-3.2 3.1-6.3 6.2l-18.1 19.5c-0.6 0.6-4.1 4.1-2.2 8.6 0.7 1.6 2.2 3.2 4.3 4.6 5.2 3.5 16.5 6 25.7 3.9 7.3-1.6 15.1-7.8 23.3-14.4 8-6.4 17-12.4 23.9-14.3 2.5-0.7 6.1-1.1 8.7-0.8 5 0.6 9.8 2.3 18.4 8.7 14.8 11.1 80.2 68.3 80.8 68.9 0 0 4.7 4 4.4 10.6z"/><path class="a" d="m166.2 147.7c14.1-14 27.4-27.3 58-28 20.7-0.5 41.6 9.4 41.8 9.5 38.6 18.9 78.2 11.8 110.5-1.8 23.2 18.8 38.5 41.8 42.6 67-47.2 10.4-81.9 25.3-89.7 28.9-9.7-8.5-65.9-57.5-79.8-68-7.4-5.6-12.1-8.2-16-9.3-3.6-1.1-9.1-2.3-17.6 0.4-8 2.6-16 9-24.1 15.4-7.4 5.9-15.1 12-21.1 13.3-10 2.3-20-0.1-23.2-4.2-1.3-1.7 0.7-3.8 0.8-4z"/></svg>