<svg x="0px" y="0px" viewBox="0 0 512 512">
	<path d="M486.4,0c-14.114,0-25.6,11.486-25.6,25.6v93.867h-25.6V53.504c0-10.684-8.695-19.371-19.371-19.371h-63.659
			c-10.675,0-19.371,8.687-19.371,19.371v65.963h-25.6V53.504c0-10.684-8.695-19.371-19.371-19.371h-63.659
			c-10.675,0-19.371,8.687-19.371,19.371v65.963h-25.6V53.504c0-10.684-8.695-19.371-19.371-19.371H96.171
			c-10.675,0-19.371,8.687-19.371,19.371v65.963H51.2V25.6C51.2,11.486,39.714,0,25.6,0S0,11.486,0,25.6V512h51.2v-51.2h25.6h102.4
			h25.6h102.4h25.6h102.4h25.6V512H512V25.6C512,11.486,500.514,0,486.4,0z M460.8,443.733h-25.6v-65.963
			c0-10.684-8.695-19.371-19.371-19.371h-63.659c-10.675,0-19.371,8.687-19.371,19.371v65.963h-25.6v-65.963
			c0-10.684-8.695-19.371-19.371-19.371h-63.659c-10.675,0-19.371,8.687-19.371,19.371v65.963h-25.6v-65.963
			c0-10.684-8.695-19.371-19.371-19.371H96.171c-10.675,0-19.371,8.687-19.371,19.371v65.963H51.2V298.667h25.6h102.4h25.6h102.4
			h25.6h102.4h25.6V443.733z M460.8,281.6h-25.6v-65.963c0-10.684-8.695-19.371-19.371-19.371h-63.659
			c-10.675,0-19.371,8.687-19.371,19.371V281.6h-25.6v-65.963c0-10.684-8.695-19.371-19.371-19.371h-63.659
			c-10.675,0-19.371,8.687-19.371,19.371V281.6h-25.6v-65.963c0-10.684-8.695-19.371-19.371-19.371H96.171
			c-10.675,0-19.371,8.687-19.371,19.371V281.6H51.2V136.533h25.6h102.4h25.6h102.4h25.6h102.4h25.6V281.6z" />
</svg>
