<svg xmlns="http://www.w3.org/2000/svg" xmlns:xlink="http://www.w3.org/1999/xlink" x="0px" y="0px"
	 viewBox="0 0 384.857 384.857" style="enable-background:new 0 0 384.857 384.857;" xml:space="preserve">
<path d="M215.814,151.558c-18.882,0-34.244,15.361-34.244,34.243c0,18.882,15.362,34.243,34.244,34.243s34.243-15.361,34.243-34.243
	C250.057,166.919,234.696,151.558,215.814,151.558z M215.814,202.043c-8.957,0-16.244-7.287-16.244-16.243
	c0-8.956,7.287-16.243,16.244-16.243s16.243,7.287,16.243,16.243C232.057,194.757,224.771,202.043,215.814,202.043z
	 M304.122,203.784l-11.629-8.425c0.391-3.164,0.587-6.359,0.587-9.551c0-3.146-0.19-6.291-0.568-9.403l11.632-8.428
	c2.973-1.937,7.028-6.501,5.086-16.565c-0.931-4.817-3.158-10.442-6.272-15.835c-8.63-14.951-19.087-21.493-27.438-17.245
	l-13.091,5.85c-5.099-3.869-10.614-7.063-16.487-9.546l-1.471-14.172c-0.445-9.393-11.339-15.199-28.656-15.199
	c-17.267,0-28.164,5.79-28.654,15.152l-1.476,14.22c-5.874,2.484-11.39,5.679-16.486,9.547l-13.063-5.836
	c-3.164-1.605-9.145-2.834-16.887,3.879c-3.707,3.214-7.464,7.956-10.577,13.35c-8.63,14.945-9.071,27.271-1.221,32.382
	l11.666,8.451c-0.379,3.116-0.569,6.26-0.569,9.399c0,3.191,0.196,6.385,0.587,9.548l-11.671,8.456
	c-7.862,5.105-7.427,17.437,1.207,32.389c3.114,5.395,6.871,10.136,10.578,13.35c7.744,6.714,13.725,5.484,16.887,3.878
	l13.196-5.895c5.057,3.82,10.521,6.978,16.337,9.439l1.491,14.386c0.487,9.365,11.386,15.155,28.654,15.155
	c17.317,0,28.211-5.806,28.656-15.2l1.488-14.341c5.815-2.461,11.28-5.619,16.336-9.438l13.225,5.91
	c8.352,4.251,18.808-2.295,27.437-17.243C311.616,221.205,312.036,208.867,304.122,203.784z M273.929,174.127
	c0.764,3.814,1.15,7.744,1.15,11.681c0,3.971-0.396,7.945-1.175,11.81c-0.697,3.456,0.688,7,3.542,9.068l14.121,10.23
	c-0.412,2.107-1.613,5.805-4.2,10.286c-2.588,4.481-5.189,7.37-6.809,8.78l-15.98-7.142c-3.216-1.438-6.977-0.866-9.62,1.463
	c-5.959,5.248-12.771,9.184-20.248,11.697c-3.342,1.124-5.72,4.095-6.084,7.602l-1.807,17.407
	c-2.031,0.696-5.833,1.505-11.006,1.505c-5.176,0-8.979-0.809-11.009-1.506l-1.805-17.405c-0.364-3.507-2.742-6.479-6.084-7.603
	c-7.476-2.513-14.288-6.449-20.25-11.698c-2.643-2.328-6.399-2.9-9.618-1.463l-15.983,7.14c-1.618-1.41-4.22-4.299-6.806-8.779
	c-2.588-4.482-3.789-8.18-4.2-10.287l14.12-10.231c2.854-2.068,4.238-5.611,3.542-9.066c-0.778-3.866-1.174-7.839-1.174-11.809
	c0-3.924,0.388-7.855,1.151-11.684c0.688-3.45-0.697-6.985-3.546-9.049l-14.094-10.209c0.411-2.107,1.612-5.806,4.201-10.289
	c2.585-4.479,5.187-7.368,6.805-8.778l15.862,7.087c3.226,1.44,6.992,0.862,9.635-1.477c5.987-5.298,12.84-9.267,20.368-11.795
	c3.343-1.123,5.722-4.095,6.086-7.603l1.789-17.239c2.03-0.697,5.833-1.506,11.009-1.506c5.173,0,8.975,0.808,11.006,1.505
	l1.789,17.24c0.364,3.508,2.744,6.48,6.088,7.603c7.525,2.526,14.378,6.494,20.369,11.794c2.644,2.339,6.41,2.917,9.635,1.476
	l15.859-7.087c1.618,1.41,4.221,4.299,6.808,8.781c2.587,4.479,3.788,8.176,4.2,10.284l-14.094,10.212
	C274.624,167.139,273.239,170.676,273.929,174.127z M321.874,46h-212.12c-34.221,0-61.825,27.754-61.825,61.976v175.411l-29,25.801
	V105.811C18.928,57.195,58.973,18,107.59,18h168.009c9.445,0,18.467,2.804,26.09,8.446c3.995,2.957,9.631,2.026,12.589-1.969
	c2.957-3.995,2.115-9.497-1.88-12.454C301.652,4.07,288.927,0,275.598,0H107.59C49.049,0,0.928,47.27,0.928,105.811v223.776
	c0,3.565,2.351,6.795,5.614,8.234c3.262,1.438,7.308,0.817,9.942-1.587l31.445-28.478v68.101c0,3.565,1.986,6.795,5.249,8.234
	c1.167,0.515,2.344,0.766,3.572,0.766c2.203,0,4.348-0.809,6.04-2.352l52.297-47.742c1.627-1.485,3.009-2.782,4.222-3.913
	c2.503-2.336,4.864-4.542,5.647-4.849c0.735-0.289,3.838-0.171,7.122-0.128c1.777,0.024,3.838,0.127,6.266,0.127h183.531
	c34.221,0,62.055-27.993,62.055-62.215V107.976C383.928,73.754,356.094,46,321.874,46z M365.928,263.785
	c0,24.297-19.759,44.215-44.055,44.215H138.343c-2.334,0-4.317-0.103-6.026-0.125c-13.266-0.178-15.396,0.617-25.296,9.852
	c-1.171,1.093-2.396,2.327-3.967,3.761l-37.125,33.97v-68.091c0-0.008,0-0.015,0-0.023V107.976C65.928,83.679,85.458,64,109.754,64
	h212.12c24.296,0,44.055,19.679,44.055,43.976V263.785z"/>
</svg>
