<svg x="0" y="0"  viewBox="0 0 548 548" xmlns="http://www.w3.org/2000/svg" version="1.1">
   <path  d="m379.004,75.29239l-14.176,0l0,-57.926c0,-6.25 -3.3359,-12.027 -8.75,-15.156c-5.4141,-3.125 -12.086,-3.125 -17.5,0c-5.4141,3.1289 -8.75,8.9062 -8.75,15.156l0,57.926l-112.18,0l0,-57.926c0,-6.25 -3.332,-12.027 -8.75,-15.156c-5.4141,-3.125 -12.082,-3.125 -17.5,0c-5.4141,3.1289 -8.75,8.9062 -8.75,15.156l0,57.926l-13.648,0c-4.6406,0 -9.0938,1.8438 -12.375,5.125s-5.125,7.7344 -5.125,12.375l0,114.27c0.03906,28.68 10.855,56.293 30.305,77.363c19.453,21.074 46.113,34.062 74.695,36.387l0,99.578c0,6.25 3.3359,12.027 8.75,15.152c5.4141,3.1289 12.086,3.1289 17.5,0c5.4141,-3.125 8.75,-8.9023 8.75,-15.152l0,-99.402c28.582,-2.3281 55.242,-15.316 74.695,-36.387c19.449,-21.07 30.266,-48.688 30.305,-77.363l0,-114.45c0,-4.6406 -1.8438,-9.0938 -5.125,-12.375s-7.7344,-5.125 -12.375,-5.125l0.004,0.004zm-17.5,131.77c0,21.027 -8.3516,41.191 -23.219,56.059c-14.867,14.867 -35.031,23.219 -56.055,23.219l-17.5,0c-20.812,-0.27734 -40.684,-8.7266 -55.32,-23.527c-14.633,-14.797 -22.863,-34.758 -22.906,-55.574l0,-96.949l175,0l0,96.772z"/>
   <path  d="m320.734,448.91739c-3.2812,-3.2578 -7.7148,-5.0898 -12.34,-5.0898c-4.6211,0 -9.0586,1.832 -12.336,5.0898l-22.051,22.398l-21.875,-22.398c-4.5039,-3.8594 -10.656,-5.1719 -16.348,-3.4883c-5.6875,1.6797 -10.137,6.1289 -11.816,11.816c-1.6836,5.6875 -0.36719,11.84 3.4883,16.348l21.875,21.875l-21.875,21.875c-3.7031,3.1719 -5.9141,7.7422 -6.1016,12.617c-0.19141,4.8711 1.6641,9.6016 5.1094,13.047c3.4492,3.4492 8.1797,5.3008 13.051,5.1133c4.8711,-0.1875 9.4453,-2.3984 12.617,-6.1016l21.875,-21.176l21.875,21.875c4.5039,3.8555 10.656,5.1719 16.348,3.4883c5.6875,-1.6797 10.137,-6.1289 11.816,-11.816c1.6836,-5.6914 0.36719,-11.844 -3.4883,-16.348l-21.875,-21.875l21.875,-21.875c3.5,-3.2812 5.5,-7.8516 5.5352,-12.648c0.03125,-4.7969 -1.9062,-9.3984 -5.3594,-12.727l0.0004,0.0003z"/>
</svg>