<svg viewBox="0 0 478 478" xmlns="http://www.w3.org/2000/svg" version="1.1">
   <path d="m269.17768,250.73795l-49.613,49.613l-41.562,-41.914l49.262,-49.176c4.2539,-4.2539 4.2539,-11.148 0,-15.398c-4.25,-4.2539 -11.148,-4.2539 -15.398,0l-49.613,49.172l-28.789,-28.789l0,0.00391c-4.3008,-4.1328 -11.098,-4.1328 -15.398,0l-65.188,65.012c-17.996,17.977 -28.699,41.98 -30.039,67.379c-1.3438,25.402 6.7734,50.402 22.777,70.172l-41.562,41.738c-2.25,1.9961 -3.5742,4.832 -3.668,7.8359c-0.08984,3.0078 1.0586,5.918 3.1797,8.0508c2.1172,2.1289 5.0234,3.2969 8.0273,3.2188c3.0078,-0.07422 5.8516,-1.3828 7.8594,-3.6211l41.562,-41.562c19.789,16.02 44.809,24.133 70.23,22.777c25.422,-1.3594 49.438,-12.09 67.406,-30.125l65.102,-65.102c2.0586,-2.0508 3.2148,-4.8359 3.2148,-7.7422s-1.1562,-5.6914 -3.2148,-7.7461l-28.699,-28.699l49.613,-49.613c4.2734,-4.2734 4.2734,-11.211 0,-15.484c-4.2773,-4.2773 -11.211,-4.2773 -15.488,0l-0.0014,-0.00101zm-86.012,158.98c-20.523,20.508 -50.43,28.508 -78.449,20.988c-28.02,-7.5195 -49.902,-29.414 -57.398,-57.441c-7.5,-28.027 0.52344,-57.926 21.047,-78.434l57.137,-57.398l115.06,114.89l-57.397,57.395z" id="svg_15"/>
   <path d="m474.44768,3.54695c-2.0352,-2.0547 -4.8086,-3.207 -7.6992,-3.207s-5.6641,1.1523 -7.6992,3.207l-41.562,41.562c-19.812,-15.965 -44.82,-24.043 -70.227,-22.688c-25.406,1.3594 -49.414,12.055 -67.41,30.035l-65.102,65.102c-2.0586,2.0508 -3.2148,4.8359 -3.2148,7.7422s1.1562,5.6914 3.2148,7.7461l130.29,130.29c4.2812,4.1797 11.117,4.1797 15.398,0l65.188,-65.188c18.02,-17.98 28.738,-42 30.078,-67.422c1.3438,-25.422 -6.7852,-50.438 -22.816,-70.215l41.562,-41.562c4.2266,-4.2617 4.2266,-11.137 0,-15.398l-0.0006,-0.0043zm-64.312,179.46l-57.137,57.137l-115.06,-114.89l57.398,-57.398c20.57,-20.508 50.52,-28.484 78.562,-20.926c28.043,7.5625 49.926,29.508 57.402,57.578c7.4727,28.066 -0.59375,57.988 -21.164,78.496l-0.001,0.003z" id="svg_16"/>
</svg>