<svg x="0" y="0"  viewBox="0 0 539 539" xmlns="http://www.w3.org/2000/svg" version="1.1">
   <path  d="m374.504,75.42676l-14.176,0l0,-57.926c0,-6.25 -3.3359,-12.027 -8.75,-15.156c-5.4141,-3.125 -12.086,-3.125 -17.5,0c-5.4141,3.1289 -8.75,8.9062 -8.75,15.156l0,57.926l-112.18,0l0,-57.926c0,-6.25 -3.332,-12.027 -8.75,-15.156c-5.4141,-3.125 -12.082,-3.125 -17.5,0c-5.4141,3.1289 -8.75,8.9062 -8.75,15.156l0,57.926l-13.648,0c-4.6406,0 -9.0938,1.8438 -12.375,5.125s-5.125,7.7344 -5.125,12.375l0,114.27c0.03906,28.68 10.855,56.293 30.305,77.363c19.453,21.074 46.113,34.062 74.695,36.387l0,99.578c0,6.25 3.3359,12.027 8.75,15.152c5.4141,3.1289 12.086,3.1289 17.5,0c5.4141,-3.125 8.75,-8.9023 8.75,-15.152l0,-99.402c28.582,-2.3281 55.242,-15.316 74.695,-36.387c19.449,-21.07 30.266,-48.688 30.305,-77.363l0,-114.45c0,-4.6406 -1.8438,-9.0938 -5.125,-12.375s-7.7344,-5.125 -12.375,-5.125l0.004,0.004zm-17.5,131.77c0,21.027 -8.3516,41.191 -23.219,56.059c-14.867,14.867 -35.031,23.219 -56.055,23.219l-17.5,0c-20.812,-0.27734 -40.684,-8.7266 -55.32,-23.527c-14.633,-14.797 -22.863,-34.758 -22.906,-55.574l0,-96.949l175,0l0,96.772z"/>
   <path  d="m325.504,440.65176l-56.875,56.875l-30.977,-30.977c-4.5039,-3.8594 -10.656,-5.1719 -16.344,-3.4883c-5.6875,1.6797 -10.137,6.1289 -11.82,11.816c-1.6797,5.6875 -0.36719,11.84 3.4922,16.348l42.699,42.699c3.3008,3.2773 7.7734,5.1016 12.426,5.0742l1.3984,0c4.6523,0.02734 9.1211,-1.7969 12.426,-5.0742l68.602,-68.602l-0.00391,0c3.8594,-4.5039 5.1719,-10.656 3.4922,-16.344c-1.6836,-5.6875 -6.1328,-10.137 -11.82,-11.82c-5.6875,-1.6797 -11.84,-0.36719 -16.344,3.4922l-0.35189,0.0011z"/>
</svg>