<svg xmlns="http://www.w3.org/2000/svg" style="shape-rendering:geometricPrecision; text-rendering:geometricPrecision; image-rendering:optimizeQuality; fill-rule:evenodd; clip-rule:evenodd"
viewBox="0 0 1706.66 1706.66">
  <path fill="#DFDFDF" d="M173.49 1491.78c-11.04,0 -20,-8.97 -20,-20l0 -921.17c0,-11.04 8.96,-20 20,-20l375.91 0c21.14,0 27.68,28.75 8.75,37.98l-6.57 902.41 1.95 0 0 6.94 -361.02 0c-2.6,8.02 -10.14,13.83 -19.03,13.83z"/>
  <path fill="#C2C2C2" d="M549.42 570.61l-437.83 0c-11.04,0 -20,-8.96 -20,-20l0 -122.76c0,-11.04 8.96,-20 20,-20l437.83 0c11.04,0 20,8.96 20,20l0 122.76c0,11.06 -8.96,20 -20,20z"/>
  <path fill="#DFDFDF" d="M1533.17 1491.78c-8.92,0 -16.48,-5.85 -19.06,-13.93l-365.09 0 0 -909.02c-19.44,-8.82 -13.19,-38.22 8.25,-38.22l375.9 0c11.04,0 20,8.96 20,20l0 921.17c0.02,11.02 -8.96,20 -20,20z"/>
  <path fill="#6A9ACB" d="M1553.17 634.26l0 150.35 -296.44 0c-11.04,0 -20,-8.96 -20,-20l0 -110.36c0,-11.04 8.97,-20 20,-20l296.44 0zm0 201.17l0 150.35 -296.44 0c-11.04,0 -20,-8.96 -20,-20l0 -110.36c0,-11.04 8.97,-20 20,-20l296.44 0zm0 201.17l0 150.35 -296.44 0c-11.04,0 -20,-8.96 -20,-20l0 -110.36c0,-11.04 8.97,-20 20,-20l296.44 0zm0 201.17l0 150.35 -296.44 0c-11.04,0 -20,-8.96 -20,-20l0 -110.36c0,-11.04 8.97,-20 20,-20l296.44 0z"/>
  <path fill="#C2C2C2" d="M1595.08 570.61l-437.81 0c-11.04,0 -20,-8.96 -20,-20l0 -122.76c0,-11.04 8.97,-20 20,-20l437.81 0c11.04,0 20,8.96 20,20l0 122.76c0.02,11.06 -8.96,20 -20,20z"/>
  <path fill="#D7D7D7" d="M1157.27 1491.78c-9.51,0 -17.48,-6.66 -19.5,-15.56l-568.86 0c-5.24,22.97 -39.5,19.22 -39.5,-4.46l0 -1227.72c0,-11.04 8.96,-20 20,-20l607.87 0c11.04,0 20,8.96 20,20l0 1227.72c0,11.04 -8.96,20.02 -20,20.02z"/>
  <path fill="#6A9ACB" d="M153.49 1388.12l0 -150.35 296.44 0c11.04,0 20,8.96 20,20l0 110.36c0,11.05 -8.96,19.99 -20,19.99l-296.44 0zm0 -201.17l0 -150.35 296.44 0c11.04,0 20,8.96 20,20l0 110.36c0,11.05 -8.96,19.99 -20,19.99l-296.44 0zm0 -201.17l0 -150.35 296.44 0c11.04,0 20,8.96 20,20l0 110.36c0,11.05 -8.96,19.99 -20,19.99l-296.44 0zm0 -201.17l0 -150.35 296.44 0c11.04,0 20,8.96 20,20l0 110.36c0,11.05 -8.96,19.99 -20,19.99l-296.44 0z"/>
  <path fill="#6A9ACB" d="M1034.73 1491.78c-11.46,0 -20,-8.81 -20,-21.37l-322.8 0c0,29.07 -40,27.04 -40,1.35l0 -434.35c0,-11.04 8.96,-20 20,-20l362.79 0c11.04,0 20,8.97 20,20l0 434.35c0.01,11.04 -8.96,20.02 -19.99,20.02z"/>
  <polygon fill="#86C5E2" points="872.47,1470.41 832.47,1470.41 832.47,1017.41 872.47,1017.41 "/>
  <path fill="#6A9ACB" d="M1065.08 705.69l-423.48 0c-9.13,0 -16.54,-7.41 -16.54,-16.54l0 -96.85c0,-9.13 7.41,-16.53 16.54,-16.53l423.47 0c9.13,0 16.54,7.41 16.54,16.53l0 96.85c0.01,9.14 -7.39,16.54 -16.52,16.54z"/>
  <path fill="#6A9ACB" d="M1065.08 518.22l-423.48 0c-9.13,0 -16.54,-7.41 -16.54,-16.53l0 -96.85c0,-9.13 7.41,-16.54 16.54,-16.54l423.47 0c9.13,0 16.54,7.41 16.54,16.53l0 96.86c0.01,9.13 -7.39,16.53 -16.52,16.53z"/>
  <path fill="#6A9ACB" d="M1065.08 893.16l-423.48 0c-9.13,0 -16.54,-7.42 -16.54,-16.53l0 -96.86c0,-9.13 7.41,-16.53 16.54,-16.53l423.47 0c9.13,0 16.54,7.41 16.54,16.53l0 96.86c0.01,9.11 -7.39,16.53 -16.52,16.53z"/>
  <path fill="#86C5E2" d="M927.46 1321.7c-11.04,0 -20,-8.97 -20,-20l0 -94.22c0,-26.33 40,-26.32 40,0l0 94.22c0,11.03 -8.96,20 -20,20z"/>
  <path fill="#86C5E2" d="M777.47 1321.7c-11.04,0 -20,-8.97 -20,-20l0 -94.22c0,-26.33 40,-26.32 40,0l0 94.22c0,11.03 -8.95,20 -20,20z"/>
  <path fill="#B3B3B3" d="M1686.65 1605.37l-1666.65 0c-11.04,0 -20,-8.97 -20,-20l0 -113.63c0,-11.04 8.96,-20 20,-20l1666.65 0c11.04,0 20,8.97 20,20l0 113.63c0,11.04 -8.96,20 -20,20z"/>
  <path fill="#C2C2C2" d="M1214.4 264.06l-722.12 0c-11.04,0 -20,-8.96 -20,-20l0 -122.76c0,-11.04 8.96,-20 20,-20l722.12 0c11.04,0 20,8.96 20,20l0 122.76c0.01,11.04 -8.96,20 -20,20z"/>
</svg>
