<svg xmlns="http://www.w3.org/2000/svg" viewBox="0 0 1706.66 1706.66" >
<path fill="#79BBBB" d="M715.82 1603.07l-291.54 0c-90.77,0 -164.94,-73.65 -172.56,-171.33l-52.11 -668.19c-0.73,-9.4 6.77,-17.52 16.21,-17.52l708.45 0c9.43,0 16.95,8.12 16.22,17.52l-52.11 668.19c-7.63,97.68 -81.81,171.33 -172.57,171.33z" ></path>
<path fill="#335F8C" d="M987.4 778.56l-834.69 0c-32.54,0 -59.02,-26.47 -59.02,-59.02l0 -134.36c0,-32.54 26.47,-59.02 59.02,-59.02l834.69 0c32.54,0 59.02,26.47 59.02,59.02l0 134.36c0,32.54 -26.48,59.02 -59.02,59.02z" ></path>
<path fill="#335F8C" d="M704.23 1138.02c-20.16,0 -22.02,-30.15 -1.8,-32.42 225.53,-25.41 396.9,-211.83 404.82,-436.98l-77.1 0c-21.41,0 -21.41,-32.52 0,-32.52l93.65 0c8.98,0 16.26,7.29 16.26,16.26 0,248.94 -186.58,457.69 -433.99,485.56 -0.63,0.07 -1.24,0.1 -1.85,0.1zm-268.35 0c-0.61,0 -1.22,-0.03 -1.84,-0.11 -247.41,-27.89 -433.97,-236.63 -433.97,-485.55 0,-8.98 7.29,-16.26 16.26,-16.26l93.64 0 0 32.52 -77.09 0c7.91,225.13 179.28,411.55 404.8,436.98 20.24,2.28 18.36,32.42 -1.8,32.42z" ></path>
<path fill="#335F8C" d="M642.23 1203.11l-144.36 0c-43.21,0 -78.36,-35.15 -78.36,-78.36 0,-43.22 35.15,-78.38 78.36,-78.38l144.35 0c43.21,0 78.37,35.16 78.37,78.38 0.01,43.2 -35.15,78.36 -78.35,78.36z" ></path>
<path fill="#C1C1C1" d="M1342.43 729.44c-11.04,0 -20,-8.96 -20,-20l0 -586.85c0,-26.32 40,-26.32 40,0l0 586.85c0,11.04 -8.96,20 -20,20z" ></path>
<path fill="#C1C1C1" d="M1342.43 1225.99c-11.04,0 -20,-8.97 -20,-20l0 -174.93c0,-26.33 40,-26.32 40,0l0 174.93c0,11.04 -8.96,20 -20,20z" ></path>
<path fill="#B3B3B3" d="M1417.2 1344.49c-7.18,0 -13.48,-3.79 -17,-9.48l-115.21 0c-8.97,15.15 -37.31,11.63 -37.31,-10.52l0 -118.5c0,-11.04 8.97,-20 20,-20l149.52 0c11.04,0 20,8.97 20,20l0 118.5c0,11.04 -8.96,20 -20,20z" ></path>
<path fill="#187D96" d="M1403.09 1051.06l-121.32 0c-11.04,0 -20,-8.97 -20,-20l0 -321.62c0,-11.04 8.97,-20 20,-20l121.32 0c11.04,0 20,8.96 20,20l0 321.62c0,11.04 -8.96,20 -20,20z" ></path>
<path fill="#187D96" d="M1686.64 1604.07l-688.41 0c-25.46,0 -20,-31.38 -20,-53.86 0,-135.48 110.23,-245.7 245.71,-245.7l237 0c135.48,0 245.7,110.24 245.7,245.7 0,22.48 5.46,53.86 -20,53.86z" ></path>
</svg>