<svg xmlns="http://www.w3.org/2000/svg" viewBox="0 0 1706.66 1706.66">
<path fill="#FA3C48" d="M1663 1011.14c-9.46,0 -17.44,-6.6 -19.48,-15.52l-665.61 0c-282.73,101.55 -829.21,-48.99 -939.94,-81.43 -8.31,16.81 -38.53,12.89 -37.9,-9.97 3.28,-118.94 314.8,-79.13 432.61,-160.34 154.48,-106.49 399.75,-327.5 536.11,-276.46 40.47,15.16 67.64,52 80.82,109.54 96.69,136.9 244.04,50.84 374.11,-25.14 119.3,-69.67 246.31,-138.68 250.78,55.15l8.52 383.73c0.25,11.21 -8.74,20.44 -20.02,20.44z" id="id_101"></path>
<path fill="#294D71" d="M610.06 613.51c10.83,-7.86 21.74,-15.67 32.69,-23.37l71.35 123.59c13.3,23.05 -21.61,42.53 -34.63,20l-69.41 -120.22zm85.32 -59.1c11.32,-7.37 22.62,-14.51 33.87,-21.33l70.23 121.65c13.3,23.05 -21.61,42.53 -34.63,20l-69.46 -120.31zm107.39 -61.3c12.59,-5.91 24.98,-11.19 37.13,-15.69l68.87 119.29c13.29,23.01 -21.61,42.59 -34.64,20l-71.36 -123.6z" id="id_102"></path>
<path fill="#294D71" d="M534.96 886.06c-21.46,7.38 -30.15,10.05 -37.84,-4.22 -5.22,-9.68 -1.68,-21.74 7.98,-27.01 3.59,-1.96 89.94,-47.7 277.67,-30.6 182.43,16.63 182.04,-54.41 401.79,30.97 162.46,63.12 312.32,-77.39 324.99,-18.02 4.7,22 -19.7,25.23 -54.63,35.45 -16.76,32 -27.76,65.87 -31.01,98.65l-469.46 0.28c-121.09,25.2 -259.6,27.32 -402.58,14.52 -1.15,-31.99 -7.18,-66.41 -16.93,-100.01z" id="id_103"></path>
<path fill="#294D71" d="M1674.5 606.97c-6.36,-275.4 -250.12,-22.93 -425.09,30.64 99.13,78.61 253.76,30.54 269.47,29.5 42.53,-2.81 111.36,26.79 157.97,45.99l-2.35 -106.14z"></path>
<path fill="#E13641" d="M1677.7 753.09c-96.44,0 -200.86,117.05 -213.5,218.15l198.82 -0.12c10.75,-0 15.91,5.96 19.92,16.09l-5.19 -234.12 -0.05 0z"></path>
<path fill="#E13641" d="M1462.43 995.62l-39 0c-0.33,-1.44 -0.5,-2.94 -0.5,-4.48 0,-125.67 124.41,-277.38 253.94,-278.04l0.89 39.98c-102.94,0 -214.81,133.14 -214.81,238.05 0,1.54 -0.17,3.04 -0.5,4.48z"></path>
<path fill="#E13641" d="M551.17 1019.55c-13.29,-1.46 -26.55,-3.04 -39.76,-4.74 6.97,-89.21 -36.13,-204.29 -93.68,-261.83l34.14 -22.57c61.67,62.93 107.33,194.33 99.3,289.14l0 0.01z"></path>
<path fill="#D6E3FF" d="M643.06 1246.79c-273.5,0.02 -593.73,-38.49 -642.76,-338.79 -2.34,-14.37 11.05,-26.39 25.08,-22.5 300.27,83.31 658.23,142.43 929.09,86.06l708.56 -0.43c7.16,0 13.85,3.96 17.43,10.14 0.61,1.07 53.44,121.52 7.26,201.49 -24.48,42.41 -70.3,63.92 -136.16,63.92l-908.5 0.11z" id="id_108"></path>
<path fill="#294D71" d="M1529.67 1160.26l-174.79 0c-72.87,0 -72.89,-110.76 0,-110.76l174.79 0c72.9,0 72.91,110.76 0,110.76z"></path>
<path fill="#E13641" d="M417.73 752.98c-126.63,68.92 -412.2,37.29 -417.61,149.87 1.13,-11.93 12.95,-20.77 25.26,-17.35 153.48,42.58 322.03,78.84 486.31,96.59 -4.39,-82.57 -44.59,-183.87 -93.96,-229.11z"></path>
</svg>